<?xml version="1.0" encoding="utf-8"?>
<!-- Generator: Adobe Illustrator 18.1.1, SVG Export Plug-In . SVG Version: 6.00 Build 0)  -->
<svg version="1.1" id="Layer_1" xmlns="http://www.w3.org/2000/svg" xmlns:xlink="http://www.w3.org/1999/xlink" x="0px" y="0px"
	 viewBox="0 0 250 250" enable-background="new 0 0 250 250" xml:space="preserve">
<g id="Layer_1_1_" display="none">
	<path display="inline" fill="#6BC17E" d="M125,19C66.8,19,19.5,66.2,19.5,124.5S66.8,230,125,230s105.5-47.2,105.5-105.5
		S183.2,19,125,19z M125,209c-46.5,0-84.5-37.8-84.5-84.5S78.2,40.2,125,40.2s84.5,37.8,84.5,84.5S171.5,209,125,209z M132,117.5
		v-28h28.2v-14H132v-14h-14v14H89.8v56.2H118V160H89.8v14H118v14h14v-14h28.2l0,0v-56.5H132z M118,117.5h-14v-28h14V117.5z
		 M146,159.8h-14v-28.2h14V159.8z"/>
</g>
<g id="Layer_2" display="none">
	<path display="inline" fill="#6BC17E" d="M157.2,176.8L111,130.2v-62h28.2v50.5l38,38L157.2,176.8z M125,12
		C62.8,12,12.5,62.5,12.5,124.5S63,237,125,237s112.5-50.5,112.5-112.5S187,12,125,12z M125,209c-46.5,0-84.5-37.8-84.5-84.5
		S78.2,40.2,125,40.2s84.5,37.8,84.5,84.5S171.5,209,125,209z"/>
</g>
<g id="Layer_3" display="none">
	<path display="inline" fill="#6BC17E" d="M89.8,96.5H118v28.2H89.8V96.5z M132,96.5h28.2v28.2H132V96.5z M174.2,96.5h28.2v28.2
		h-28.2V96.5z M47.5,180.8h28.2V209H47.5V180.8z M89.8,180.8H118V209H89.8V180.8z M132,180.8h28.2V209H132V180.8z M89.8,138.5H118
		v28.3H89.8V138.5z M132,138.5h28.2v28.3H132V138.5z M174.2,138.5h28.2v28.3h-28.2V138.5z M47.5,138.5h28.2v28.3H47.5V138.5z
		 M202.2,12v14h-28V12H75.8v14H47.5V12h-28v225h211V12C230.5,12,202.2,12,202.2,12z M216.5,223h-183V68.2h182.8V223H216.5z"/>
</g>
<g id="Layer_4" display="none">
	<path display="inline" fill="#6BC17E" d="M122.5,12.5c-38.8,0-70,31.2-70,70c0,70,70,154,70,154s70-84,70-154
		C192.5,43.8,161.2,12.5,122.5,12.5z M122.5,124.5c-23.2,0-42-18.8-42-42s18.8-42,42-42s42,18.8,42,42S145.8,124.5,122.5,124.5z"/>
</g>
<g id="Layer_5">
	<path fill="#FAAB2E" d="M242.5,98l-81.2-11.8l-36.5-73.8L88.5,86.2L7.2,98L66,155.2l-14,81l72.8-38.2l72.8,38.2l-14-81L242.5,98z"
		/>
</g>
<g id="Layer_6" display="none">
	<path display="inline" fill="#82888A" d="M235.5,192.2L235.5,192.2l-68-68l68-68l0,0c0.8-0.8,1.2-1.5,1.5-2.5
		c1-2.5,0.5-5.5-1.5-7.5L203.2,14c-2-2-5-2.5-7.5-1.5c-1,0.2-1.7,1-2.5,1.5l0,0l-67.8,68.2L57.5,14l0,0c-0.8-0.8-1.5-1.2-2.5-1.5
		c-2.5-1-5.5-0.5-7.5,1.5L15.2,46.2c-2,2-2.5,5-1.5,7.5c0.2,1,1,1.8,1.5,2.5l0,0l68,68l-68,68l0,0c-0.8,0.8-1.2,1.5-1.5,2.5
		c-1,2.5-0.5,5.5,1.5,7.5l32.2,32c2,2,5,2.5,7.5,1.5c1-0.2,1.8-1,2.5-1.5l0,0l68-68l68,68l0,0c0.8,0.8,1.5,1.2,2.5,1.5
		c2.5,1,5.5,0.5,7.5-1.5l32.2-32.3c2-2,2.5-5,1.5-7.5C236.8,193.8,236.2,193,235.5,192.2z"/>
</g>
<g id="Layer_7" display="none">
	<path display="inline" fill="#FFFFFF" d="M206.5,236.5h-160c-6.2,0-11.5-5-11.5-11.5c0-16.5,7-36.2,18.5-53
		c9.8-14,21.5-24.8,34.5-30.7c-5.8-5.2-10.5-11.5-14.5-18.5C67.2,111.3,64,98,64,84.3c0-19,6.2-36.8,17.5-50.3
		c11.8-14.2,27.8-22,44.7-22s33,7.8,44.8,22c11.2,13.5,17.5,31.5,17.5,50.3c0,13.5-3.2,27-9.5,38.5c-3.8,7.2-8.8,13.5-14.5,18.5
		c12.8,6.2,24.8,16.8,34.5,30.8c11.5,16.7,18.5,36.7,18.5,53C217.8,231.5,212.8,236.5,206.5,236.5z M59.5,213.8h134
		c-2.2-9.2-6.7-19.5-13-28.8c-9.8-14.2-22.3-23.8-34.8-26.5c-5.2-1.2-9-5.8-9-11.2V139c0-4,2.2-8,5.7-10c14.3-8,23.2-25.7,23.2-45
		c0-27.2-17.7-49.5-39.5-49.5S86.7,56.8,86.7,84c0,19.2,9.2,37,23.2,45c3.5,2,5.7,5.8,5.7,10v8.5c0,5.5-3.8,10-9,11.2
		c-12.5,2.8-24.8,12-34.8,26.5C66.2,194.2,61.5,204.5,59.5,213.8z"/>
</g>
<g id="Layer_8" display="none">
	<path display="inline" fill="#82888A" d="M237.5,94.8h-84.2l31.5-31.5c-16-16-37-24.8-59.5-24.8s-43.5,8.8-59.5,24.8
		S41,100.3,41,122.8s8.8,43.5,24.8,59.5s37,24.8,59.5,24.8s43.5-8.8,59.5-24.8c1.2-1.2,2.5-2.8,3.8-4l21,18.5
		C189.2,220.2,159,235,125.2,235C63.2,235,13,184.8,13,122.8S63.2,10.5,125.3,10.5c31,0,59,12.5,79.2,32.8l33-32.7V94.8z"/>
</g>
</svg>
