<?xml version="1.0" encoding="utf-8"?>
<!-- Generator: Adobe Illustrator 18.1.1, SVG Export Plug-In . SVG Version: 6.00 Build 0)  -->
<svg version="1.1" xmlns="http://www.w3.org/2000/svg" xmlns:xlink="http://www.w3.org/1999/xlink" x="0px" y="0px"
	 viewBox="0 0 200 200" enable-background="new 0 0 200 200" xml:space="preserve">
<g id="Layer_1" display="none">
	<g display="inline">
		<g>
			<path fill="#9B9B9B" d="M100.1,183.2c-0.8,0-1.7-0.3-2.3-0.9c-2.8-2.4-68-58.4-68-96.4c0-38.8,31.5-70.3,70.3-70.3
				c38.8,0,70.3,31.5,70.3,70.3c0,38.1-65.2,94.1-68,96.4C101.8,182.9,100.9,183.2,100.1,183.2L100.1,183.2z M100.1,22.8
				C65.3,22.8,37,51.1,37,85.9c0,31,51.4,78.5,63.1,88.9c11.7-10.4,63.1-57.9,63.1-88.9C163.2,51.1,134.9,22.8,100.1,22.8
				L100.1,22.8z"/>
		</g>
		<g>
			<path fill="#9B9B9B" d="M100.1,118.4c-17.9,0-32.4-14.6-32.4-32.4c0-17.9,14.6-32.4,32.4-32.4c17.9,0,32.4,14.6,32.4,32.4
				C132.6,103.8,118,118.4,100.1,118.4L100.1,118.4z M100.1,60.7c-13.9,0-25.2,11.3-25.2,25.2c0,13.9,11.3,25.2,25.2,25.2
				c13.9,0,25.2-11.3,25.2-25.2C125.3,72,114,60.7,100.1,60.7L100.1,60.7z"/>
		</g>
	</g>
</g>
<g id="Layer_2" display="none">
	<g display="inline">
		<path fill="#9B9B9B" d="M75.3,189.7c-0.5,0-1.1-0.1-1.6-0.4c-1.6-0.8-2.4-2.5-1.9-4.2l18.6-66.3H56c-1.4,0-2.6-0.8-3.2-2
			c-0.6-1.2-0.5-2.7,0.3-3.8l73.8-101.3c1-1.4,2.9-1.9,4.5-1.1c1.6,0.8,2.4,2.5,1.9,4.2l-18.6,66.3h34.4c1.4,0,2.6,0.8,3.2,2
			c0.6,1.2,0.5,2.7-0.3,3.8L78.2,188.2C77.5,189.2,76.4,189.7,75.3,189.7L75.3,189.7z M63.1,111.6h32c1.1,0,2.2,0.5,2.9,1.4
			c0.7,0.9,0.9,2.1,0.6,3.1l-14.5,51.6L142,88.4h-32c-1.1,0-2.2-0.5-2.9-1.4c-0.7-0.9-0.9-2.1-0.6-3.1l14.5-51.6L63.1,111.6
			L63.1,111.6z"/>
	</g>
</g>
<g id="Layer_3" display="none">
	<path display="inline" fill="#9B9A9A" d="M159.1,184.3H41.6c-4.6,0-8.4-3.8-8.4-8.4c0-12.1,5.1-26.6,13.6-39
		c7.1-10.3,15.9-18.1,25.3-22.7c-4.2-3.8-7.8-8.4-10.6-13.7c-4.6-8.4-7-18.2-7-28.2c0-13.9,4.6-27.1,12.9-37.1
		c8.7-10.4,20.4-16.1,32.9-16.1s24.2,5.7,32.9,16.1c8.3,10,12.9,23.1,12.9,37.1c0,10-2.4,19.8-7,28.2c-2.8,5.3-6.4,9.9-10.6,13.7
		c9.4,4.5,18.2,12.3,25.3,22.7c8.5,12.4,13.6,27,13.6,39C167.5,180.6,163.8,184.3,159.1,184.3z M51,167.5h98.7
		c-1.6-6.9-5-14.4-9.6-21.1c-7.3-10.5-16.3-17.4-25.5-19.4c-3.9-0.8-6.6-4.3-6.6-8.2v-6c0-3,1.6-5.8,4.2-7.3
		c10.4-5.9,17.1-18.9,17.1-33.2c0-20.1-13-36.4-29-36.4s-29,16.3-29,36.4c0,14.2,6.7,27.3,17.1,33.2c2.6,1.5,4.2,4.3,4.2,7.3v6
		c0,4-2.8,7.4-6.6,8.2c-9.2,2-18.2,8.9-25.5,19.4C56,153.1,52.6,160.7,51,167.5z"/>
</g>
<g id="Layer_6" display="none">
	<path display="inline" fill="#9B9A9A" d="M190.5,156.3V21.8H11.2v134.5h78.5v11.2H56v11.2h89.7v-11.2H112v-11.2H190.5z M33.6,44.2
		h134.5v89.7H33.6V44.2z"/>
</g>
<g id="Layer_4" display="none">
	<path display="inline" fill="#9B9A9A" d="M177.6,23.8l-0.7-0.7c-16.5-16.5-43.4-16.5-59.9,0L78.8,61.3c-16.5,16.5-16.5,43.4,0,59.9
		l0.7,0.7c1.4,1.4,2.8,2.6,4.3,3.8l14-14c-1.6-1-3.2-2.1-4.6-3.5l-0.7-0.7c-8.9-8.9-8.9-23.5,0-32.4l38.2-38.2
		c8.9-8.9,23.5-8.9,32.4,0l0.7,0.7c8.9,8.9,8.9,23.5,0,32.4l-17.3,17.3c3,7.4,4.4,15.3,4.3,23.2l26.7-26.7
		C194.1,67.2,194.1,40.3,177.6,23.8z M121.2,78.8c-1.4-1.4-2.8-2.6-4.3-3.8l-14,14c1.6,1,3.2,2.1,4.6,3.5l0.7,0.7
		c8.9,8.9,8.9,23.5,0,32.4L70,163.9c-8.9,8.9-23.5,8.9-32.4,0l-0.7-0.7c-8.9-8.9-8.9-23.5,0-32.4l17.3-17.3
		c-3-7.4-4.4-15.3-4.3-23.2L23.1,117c-16.5,16.5-16.5,43.4,0,59.9l0.7,0.7c16.5,16.5,43.4,16.5,59.9,0l38.2-38.2
		c16.5-16.5,16.5-43.4,0-59.9L121.2,78.8z"/>
</g>
<g id="Layer_5" display="none">
	<path display="inline" fill="#9B9A9A" d="M133.9,38.8H66.8l-56,67.2v28v16.8c0,6.2,5,11.2,11.2,11.2h156.8c6.2,0,11.2-5,11.2-11.2
		v-16.8v-28L133.9,38.8z M145.1,105.9l-22.4,22.4H78l-22.4-22.4H25.3L72,50h56.7l46.7,56H145.1z"/>
</g>
<g id="Layer_7" display="none">
	<path display="inline" fill="#9B9A9A" d="M174.4,25.8h-37.1c-8.7,0-21,5.1-27.2,11.2L47.8,99.4c-6.2,6.2-6.2,16.3,0,22.5l46.4,46.4
		c6.2,6.2,16.3,6.2,22.5,0L179,106c6.2-6.2,11.3-18.4,11.3-27.2V41.8C190.3,33,183.1,25.8,174.4,25.8z M153.2,78.9
		c-8.8,0-15.9-7.1-15.9-15.9s7.1-15.9,15.9-15.9c8.8,0,15.9,7.1,15.9,15.9S161.9,78.9,153.2,78.9z M24.4,114.4l56.7,56.7
		c-6,3.2-13.7,2.2-18.7-2.8l-46.4-46.4c-6.2-6.2-6.2-16.3,0-22.5l62.3-62.3c6.2-6.2,18.4-11.2,27.2-11.2l-81.1,81.1
		C22.3,109,22.3,112.4,24.4,114.4z"/>
</g>
<g id="Layer_8" display="none">
	<g display="inline">
		<g>
			<g>
				<path fill="#9B9B9B" d="M41.5,60.7c-1.3,0-2.5-0.6-3.3-1.7c-1.3-1.8-0.9-4.4,0.9-5.7l57.8-42.1c1.4-1.1,3.4-1.1,4.8,0l57.8,42.1
					c1.8,1.3,2.2,3.9,0.9,5.7c-1.3,1.8-3.9,2.2-5.7,0.9L99.4,19.5L43.9,59.9C43.2,60.4,42.4,60.7,41.5,60.7L41.5,60.7z"/>
			</g>
			<g>
				<path fill="#9B9B9B" d="M99.4,146.7c-2.3,0-4.1-1.8-4.1-4.1V14.5c0-2.3,1.8-4.1,4.1-4.1s4.1,1.8,4.1,4.1v128.1
					C103.5,144.8,101.6,146.7,99.4,146.7L99.4,146.7z"/>
			</g>
		</g>
		<g>
			<path fill="#9B9B9B" d="M171.2,190.1H27.5c-2.3,0-4.1-1.8-4.1-4.1c0-2.3,1.8-4.1,4.1-4.1h143.7c2.3,0,4.1,1.8,4.1,4.1
				C175.3,188.3,173.5,190.1,171.2,190.1L171.2,190.1z"/>
		</g>
		<g>
			<path fill="#9B9B9B" d="M171.2,190.1c-2.3,0-4.1-1.8-4.1-4.1v-36.3c0-2.3,1.8-4.1,4.1-4.1c2.3,0,4.1,1.8,4.1,4.1V186
				C175.3,188.3,173.5,190.1,171.2,190.1L171.2,190.1z"/>
		</g>
		<g>
			<path fill="#9B9B9B" d="M27.5,190.1c-2.3,0-4.1-1.8-4.1-4.1v-36.3c0-2.3,1.8-4.1,4.1-4.1c2.3,0,4.1,1.8,4.1,4.1V186
				C31.6,188.3,29.8,190.1,27.5,190.1L27.5,190.1z"/>
		</g>
	</g>
</g>
<g id="Layer_9" display="none">
	<path display="inline" fill="#9B9A9A" d="M163.4,35.7c16.9,16.9,26.2,39.4,26.2,63.4c0,23.9-9.3,46.4-26.2,63.4
		c-16.9,16.9-39.4,26.2-63.4,26.2s-46.4-9.3-63.4-26.2C19.7,145.5,10.4,123,10.4,99.1c0-23.9,9.3-46.4,26.2-63.4
		C53.6,18.8,76.1,9.5,100,9.5S146.4,18.8,163.4,35.7z M155.4,154.5c11-11,18.4-24.8,21.4-39.7c-2.4,3.5-4.6,4.8-6-3
		c-1.4-12.7-13.1-4.6-20.4-9.1c-7.7,5.2-25-10.1-22.1,7.1c4.5,7.8,24.5-10.4,14.5,6c-6.4,11.5-23.2,36.9-21,50.1
		c0.3,19.2-19.6,4-26.5-2.4c-4.6-12.8-1.6-35.1-13.6-41.3c-13.1-0.6-24.3-1.8-29.4-16.4c-3.1-10.5,3.2-26.1,14.5-28.5
		c16.4-10.3,22.3,12.1,37.7,12.5c4.8-5,17.8-6.6,18.9-12.2c-10.1-1.8,12.8-8.5-1-12.3c-7.6,0.9-12.5,7.9-8.5,13.8
		c-14.7,3.4-15.2-21.3-29.4-13.5c-0.4,12.4-23.1,4-7.9,1.5c5.2-2.3-8.5-8.9-1.1-7.7c3.7-0.2,16-4.5,12.7-7.4
		c6.9-4.3,12.6,10.2,19.3-0.3c4.8-8.1-2-9.6-8.1-5.5c-3.4-3.8,6-12.1,14.4-15.7c2.8-1.2,5.4-1.8,7.5-1.7c4.2,4.9,12,5.7,12.4-0.6
		c-10.4-5-21.9-7.6-33.8-7.6c-17.1,0-33.3,5.4-46.8,15.5c3.6,1.7,5.7,3.7,2.2,6.4c-2.7,8.1-13.7,18.9-23.3,17.3
		c-5,8.6-8.3,18.1-9.7,28.1c8.1,2.7,9.9,8,8.2,9.7c-4.1,3.6-6.6,8.7-7.9,14.2c2.6,16.1,10.2,30.9,21.9,42.6
		c14.8,14.8,34.5,23,55.4,23C120.9,177.5,140.6,169.3,155.4,154.5z"/>
</g>
<g id="Layer_10">
	<path fill="#9B9A9A" d="M182.7,162.2l-41.8-35.5c-4.3-3.9-8.9-5.7-12.7-5.5c9.9-11.5,15.8-26.5,15.8-42.9
		c0-36.5-29.6-66.2-66.2-66.2S11.8,41.7,11.8,78.3s29.6,66.2,66.2,66.2c16.4,0,31.4-6,42.9-15.8c-0.2,3.7,1.6,8.3,5.5,12.7
		l35.5,41.8c6.1,6.8,16,7.3,22.1,1.3C190,178.3,189.5,168.3,182.7,162.2z M77.9,122.4c-24.4,0-44.1-19.7-44.1-44.1
		s19.7-44.1,44.1-44.1S122,53.9,122,78.3S102.3,122.4,77.9,122.4z"/>
</g>
</svg>
