<?xml version="1.0" encoding="utf-8"?>
<!-- Generator: Adobe Illustrator 18.1.1, SVG Export Plug-In . SVG Version: 6.00 Build 0)  -->
<svg version="1.1" id="Layer_1" xmlns="http://www.w3.org/2000/svg" xmlns:xlink="http://www.w3.org/1999/xlink" x="0px" y="0px"
	 viewBox="0 0 250 250" enable-background="new 0 0 250 250" xml:space="preserve">
<g id="Layer_1_1_" display="none">
	<path display="inline" fill="#6BC17E" d="M125,19C66.8,19,19.5,66.2,19.5,124.5S66.8,230,125,230s105.5-47.2,105.5-105.5
		S183.2,19,125,19z M125,209c-46.5,0-84.5-37.8-84.5-84.5S78.2,40.2,125,40.2s84.5,37.8,84.5,84.5S171.5,209,125,209z M132,117.5
		v-28h28.2v-14H132v-14h-14v14H89.8v56.2H118V160H89.8v14H118v14h14v-14h28.2l0,0v-56.5H132z M118,117.5h-14v-28h14V117.5z
		 M146,159.8h-14v-28.2h14V159.8z"/>
</g>
<g id="Layer_2" display="none">
	<path display="inline" fill="#6BC17E" d="M157.2,176.8L111,130.2v-62h28.2v50.5l38,38L157.2,176.8z M125,12
		C62.8,12,12.5,62.5,12.5,124.5S63,237,125,237s112.5-50.5,112.5-112.5S187,12,125,12z M125,209c-46.5,0-84.5-37.8-84.5-84.5
		S78.2,40.2,125,40.2s84.5,37.8,84.5,84.5S171.5,209,125,209z"/>
</g>
<g id="Layer_3" display="none">
	<path display="inline" fill="#6BC17E" d="M89.8,96.5H118v28.2H89.8V96.5z M132,96.5h28.2v28.2H132V96.5z M174.2,96.5h28.2v28.2
		h-28.2V96.5z M47.5,180.8h28.2V209H47.5V180.8z M89.8,180.8H118V209H89.8V180.8z M132,180.8h28.2V209H132V180.8z M89.8,138.5H118
		v28.3H89.8V138.5z M132,138.5h28.2v28.3H132V138.5z M174.2,138.5h28.2v28.3h-28.2V138.5z M47.5,138.5h28.2v28.3H47.5V138.5z
		 M202.2,12v14h-28V12H75.8v14H47.5V12h-28v225h211V12H202.2z M216.5,223h-183V68.2h182.8V223H216.5z"/>
</g>
<g id="Layer_4">
	<path fill="#3078B2" d="M122.5,12.5c-38.8,0-70,31.2-70,70c0,70,70,154,70,154s70-84,70-154C192.5,43.8,161.2,12.5,122.5,12.5z
		 M122.5,124.5c-23.2,0-42-18.8-42-42s18.8-42,42-42s42,18.8,42,42S145.8,124.5,122.5,124.5z"/>
</g>
</svg>
