<?xml version="1.0" encoding="utf-8"?>
<!-- Generator: Adobe Illustrator 18.1.1, SVG Export Plug-In . SVG Version: 6.00 Build 0)  -->
<svg version="1.1" xmlns="http://www.w3.org/2000/svg" xmlns:xlink="http://www.w3.org/1999/xlink" x="0px" y="0px"
	 viewBox="0 0 100 100" enable-background="new 0 0 100 100" xml:space="preserve">
<g id="Layer_1" display="none">
	<path display="inline" fill="#6BC17E" d="M50,7.6C26.7,7.6,7.8,26.5,7.8,49.8S26.7,92,50,92s42.2-18.9,42.2-42.2S73.3,7.6,50,7.6z
		 M50,83.6c-18.6,0-33.8-15.1-33.8-33.8S31.3,16.1,50,16.1s33.8,15.1,33.8,33.8S68.6,83.6,50,83.6z M52.8,47V35.8h11.3v-5.6H52.8
		v-5.6h-5.6v5.6H35.9v22.5h11.3v11.3H35.9v5.6h11.3v5.6h5.6v-5.6h11.3l0,0V47H52.8z M47.2,47h-5.6V35.8h5.6V47z M58.4,63.9h-5.6
		V52.6h5.6V63.9z"/>
</g>
<g id="Layer_2" display="none">
	<path display="inline" fill="#6BC17E" d="M62.9,70.7L44.4,52.1V27.3h11.3v20.2l15.2,15.2L62.9,70.7z M50,4.8C25.1,4.8,5,25,5,49.8
		s20.2,45,45,45s45-20.2,45-45S74.8,4.8,50,4.8z M50,83.6c-18.6,0-33.8-15.1-33.8-33.8S31.3,16.1,50,16.1s33.8,15.1,33.8,33.8
		S68.6,83.6,50,83.6z"/>
</g>
<g id="Layer_3">
	<path fill="#82888A" d="M35.9,38.6h11.3v11.3H35.9V38.6z M52.8,38.6h11.3v11.3H52.8V38.6z M69.7,38.6h11.3v11.3H69.7V38.6z
		 M19,72.3h11.3v11.3H19V72.3z M35.9,72.3h11.3v11.3H35.9V72.3z M52.8,72.3h11.3v11.3H52.8V72.3z M35.9,55.4h11.3v11.3H35.9V55.4z
		 M52.8,55.4h11.3v11.3H52.8V55.4z M69.7,55.4h11.3v11.3H69.7V55.4z M19,55.4h11.3v11.3H19V55.4z M80.9,4.8v5.6H69.7V4.8H30.3v5.6
		H19V4.8H7.8v90h84.4v-90H80.9z M86.6,89.2H13.4V27.3h73.1V89.2z"/>
</g>
<g id="Layer_4" display="none">
	<path display="inline" fill="#6BC17E" d="M49,5C33.5,5,21,17.5,21,33c0,28,28,61.6,28,61.6S77,61,77,33C77,17.5,64.5,5,49,5z
		 M49,49.8c-9.3,0-16.8-7.5-16.8-16.8S39.7,16.2,49,16.2S65.8,23.7,65.8,33S58.3,49.8,49,49.8z"/>
</g>
<g id="Layer_5" display="none">
	<path display="inline" fill="#ED7836" d="M97,39.2l-32.5-4.7L49.9,5L35.4,34.5L2.9,39.2l23.5,22.9l-5.6,32.4l29.1-15.3L79,94.5
		l-5.6-32.4L97,39.2z"/>
</g>
<g id="Layer_6" display="none">
	<path display="inline" fill="#82888A" d="M94.2,76.9L94.2,76.9L67,49.7l27.2-27.2l0,0c0.3-0.3,0.5-0.6,0.6-1c0.4-1,0.2-2.2-0.6-3
		L81.3,5.6c-0.8-0.8-2-1-3-0.6c-0.4,0.1-0.7,0.4-1,0.6l0,0L50.2,32.9L23,5.6l0,0c-0.3-0.3-0.6-0.5-1-0.6c-1-0.4-2.2-0.2-3,0.6
		L6.1,18.5c-0.8,0.8-1,2-0.6,3c0.1,0.4,0.4,0.7,0.6,1l0,0l27.2,27.2L6.1,76.9l0,0c-0.3,0.3-0.5,0.6-0.6,1c-0.4,1-0.2,2.2,0.6,3
		L19,93.7c0.8,0.8,2,1,3,0.6c0.4-0.1,0.7-0.4,1-0.6l0,0l27.2-27.2l27.2,27.2l0,0c0.3,0.3,0.6,0.5,1,0.6c1,0.4,2.2,0.2,3-0.6
		l12.9-12.9c0.8-0.8,1-2,0.6-3C94.7,77.5,94.5,77.2,94.2,76.9z"/>
</g>
</svg>
