<?xml version="1.0" encoding="utf-8"?>
<!-- Generator: Adobe Illustrator 18.1.1, SVG Export Plug-In . SVG Version: 6.00 Build 0)  -->
<svg version="1.1" xmlns="http://www.w3.org/2000/svg" xmlns:xlink="http://www.w3.org/1999/xlink" x="0px" y="0px"
	 viewBox="0 0 100 100" enable-background="new 0 0 100 100" xml:space="preserve">
<g id="Layer_1" display="none">
	<path display="inline" fill="#6BC17E" d="M50,7.6C26.7,7.6,7.8,26.5,7.8,49.8S26.7,92,50,92s42.2-18.9,42.2-42.2S73.3,7.6,50,7.6z
		 M50,83.6c-18.6,0-33.8-15.1-33.8-33.8S31.3,16.1,50,16.1s33.8,15.1,33.8,33.8S68.6,83.6,50,83.6z M52.8,47V35.8h11.3v-5.6H52.8
		v-5.6h-5.6v5.6H35.9v22.5h11.3v11.3H35.9v5.6h11.3v5.6h5.6v-5.6h11.3l0,0V47H52.8z M47.2,47h-5.6V35.8h5.6V47z M58.4,63.9h-5.6
		V52.6h5.6V63.9z"/>
</g>
<g id="Layer_2" display="none">
	<path display="inline" fill="#6BC17E" d="M62.9,70.7L44.4,52.1V27.3h11.3v20.2l15.2,15.2L62.9,70.7z M50,4.8C25.1,4.8,5,25,5,49.8
		s20.2,45,45,45s45-20.2,45-45S74.8,4.8,50,4.8z M50,83.6c-18.6,0-33.8-15.1-33.8-33.8S31.3,16.1,50,16.1s33.8,15.1,33.8,33.8
		S68.6,83.6,50,83.6z"/>
</g>
<g id="Layer_14">
	<path fill="#82888A" d="M62.9,70.7L44.4,52.1V27.3h11.3v20.2l15.2,15.2L62.9,70.7z M50,4.8C25.1,4.8,5,25,5,49.8s20.2,45,45,45
		s45-20.2,45-45S74.8,4.8,50,4.8z M50,83.6c-18.6,0-33.8-15.1-33.8-33.8S31.3,16.1,50,16.1s33.8,15.1,33.8,33.8S68.6,83.6,50,83.6z"
		/>
</g>
<g id="Layer_3" display="none">
	<path display="inline" fill="#6BC17E" d="M35.9,38.6h11.3v11.3H35.9V38.6z M52.8,38.6h11.3v11.3H52.8V38.6z M69.7,38.6h11.3v11.3
		H69.7V38.6z M19,72.3h11.3v11.3H19V72.3z M35.9,72.3h11.3v11.3H35.9V72.3z M52.8,72.3h11.3v11.3H52.8V72.3z M35.9,55.4h11.3v11.3
		H35.9V55.4z M52.8,55.4h11.3v11.3H52.8V55.4z M69.7,55.4h11.3v11.3H69.7V55.4z M19,55.4h11.3v11.3H19V55.4z M80.9,4.8v5.6H69.7V4.8
		H30.3v5.6H19V4.8H7.8v90h84.4v-90H80.9z M86.6,89.2H13.4V27.3h73.1V89.2z"/>
</g>
<g id="Layer_4" display="none">
	<path display="inline" fill="#82888A" d="M49,5C33.5,5,21,17.5,21,33c0,28,28,61.6,28,61.6S77,61,77,33C77,17.5,64.5,5,49,5z
		 M49,49.8c-9.3,0-16.8-7.5-16.8-16.8S39.7,16.2,49,16.2S65.8,23.7,65.8,33S58.3,49.8,49,49.8z"/>
</g>
<g id="Layer_5" display="none">
	<path display="inline" fill="#F5835C" d="M97,39.2l-32.5-4.7L49.9,5L35.4,34.5L2.9,39.2l23.5,22.9l-5.6,32.4l29.1-15.3L79,94.5
		l-5.6-32.4L97,39.2z"/>
</g>
<g id="Layer_9" display="none">
	<path display="inline" fill="#F5835C" d="M81.5,94.8H17.6c-2.5,0-4.6-2-4.6-4.6c0-6.5,2.8-14.5,7.4-21.2c3.9-5.6,8.6-9.9,13.8-12.3
		c-2.3-2.1-4.2-4.6-5.8-7.4c-2.5-4.6-3.8-9.9-3.8-15.3c0-7.6,2.5-14.7,7-20.1c4.7-5.7,11.1-8.8,17.9-8.8s13.2,3.1,17.9,8.8
		c4.5,5.4,7,12.6,7,20.1c0,5.4-1.3,10.8-3.8,15.3c-1.5,2.9-3.5,5.4-5.8,7.4c5.1,2.5,9.9,6.7,13.8,12.3c4.6,6.7,7.4,14.7,7.4,21.2
		C86.1,92.8,84,94.8,81.5,94.8z M22.8,85.7h53.6c-0.9-3.7-2.7-7.8-5.2-11.5c-3.9-5.7-8.9-9.5-13.8-10.5c-2.1-0.5-3.6-2.3-3.6-4.5V56
		c0-1.6,0.9-3.2,2.3-4c5.7-3.2,9.3-10.3,9.3-18c0-10.9-7.1-19.8-15.8-19.8S33.8,23.1,33.8,34c0,7.7,3.7,14.8,9.3,18
		c1.4,0.8,2.3,2.3,2.3,4v3.3c0,2.2-1.5,4-3.6,4.5c-5,1.1-9.9,4.8-13.8,10.5C25.5,77.9,23.6,82,22.8,85.7z"/>
</g>
<g id="Layer_10" display="none">
	<path display="inline" fill="#FFFFFF" d="M22.3,16.3v79.3l28.3-28.3L79,95.7V16.3H22.3z M67.7,5H11v79.3l5.7-5.7v-68h51V5z"/>
</g>
<g id="Layer_6" display="none">
	<path display="inline" fill="#82888A" d="M94.2,76.9L94.2,76.9L67,49.7l27.2-27.2l0,0c0.3-0.3,0.5-0.6,0.6-1c0.4-1,0.2-2.2-0.6-3
		L81.3,5.6c-0.8-0.8-2-1-3-0.6c-0.4,0.1-0.7,0.4-1,0.6l0,0L50.2,32.9L23,5.6l0,0c-0.3-0.3-0.6-0.5-1-0.6c-1-0.4-2.2-0.2-3,0.6
		L6.1,18.5c-0.8,0.8-1,2-0.6,3c0.1,0.4,0.4,0.7,0.6,1l0,0l27.2,27.2L6.1,76.9l0,0c-0.3,0.3-0.5,0.6-0.6,1c-0.4,1-0.2,2.2,0.6,3
		L19,93.7c0.8,0.8,2,1,3,0.6c0.4-0.1,0.7-0.4,1-0.6l0,0l27.2-27.2l27.2,27.2l0,0c0.3,0.3,0.6,0.5,1,0.6c1,0.4,2.2,0.2,3-0.6
		l12.9-12.9c0.8-0.8,1-2,0.6-3C94.7,77.5,94.5,77.2,94.2,76.9z"/>
</g>
<g id="Layer_12" display="none">
	<path display="inline" fill="#82888A" d="M54.1,26.7V4.8l33.7,33.7L54.1,72.3V50c-39.3-0.9-37.6,26.7-27.6,44.8
		C1.8,68.2,7.1,25.4,54.1,26.7z"/>
</g>
<g id="Layer_13" display="none">
	<path display="inline" fill="#FFFFFF" d="M80.8,15L38.7,57.1L19,37.5l-14,14l33.7,33.7L94.9,29L80.8,15z"/>
</g>
<g id="Layer_7" display="none">
	<path display="inline" fill="#FFFFFF" d="M82.6,94.6H18.6c-2.5,0-4.6-2-4.6-4.6c0-6.6,2.8-14.5,7.4-21.2c3.9-5.6,8.6-9.9,13.8-12.3
		c-2.3-2.1-4.2-4.6-5.8-7.4c-2.5-4.6-3.8-9.9-3.8-15.4c0-7.6,2.5-14.7,7-20.1c4.7-5.7,11.1-8.8,17.9-8.8s13.2,3.1,17.9,8.8
		c4.5,5.4,7,12.6,7,20.1c0,5.4-1.3,10.8-3.8,15.4c-1.5,2.9-3.5,5.4-5.8,7.4c5.1,2.5,9.9,6.7,13.8,12.3c4.6,6.7,7.4,14.7,7.4,21.2
		C87.1,92.6,85.1,94.6,82.6,94.6z M23.8,85.5h53.6c-0.9-3.7-2.7-7.8-5.2-11.5c-3.9-5.7-8.9-9.5-13.9-10.6c-2.1-0.5-3.6-2.3-3.6-4.5
		v-3.3c0-1.6,0.9-3.2,2.3-4c5.7-3.2,9.3-10.3,9.3-18c0-10.9-7.1-19.8-15.8-19.8s-15.8,8.9-15.8,19.8c0,7.7,3.7,14.8,9.3,18
		c1.4,0.8,2.3,2.3,2.3,4V59c0,2.2-1.5,4-3.6,4.5c-5,1.1-9.9,4.8-13.9,10.6C26.5,77.7,24.6,81.8,23.8,85.5z"/>
</g>
<g id="Layer_8" display="none">
	<path display="inline" fill="#82888A" d="M95,37.9H61.3l12.6-12.6c-6.4-6.4-14.8-9.9-23.8-9.9c-9,0-17.4,3.5-23.8,9.9
		c-6.4,6.4-9.9,14.8-9.9,23.8c0,9,3.5,17.4,9.9,23.8c6.4,6.4,14.8,9.9,23.8,9.9c9,0,17.4-3.5,23.8-9.9c0.5-0.5,1-1.1,1.5-1.6
		l8.4,7.4C75.7,88.1,63.6,94,50.1,94C25.3,94,5.2,73.9,5.2,49.1c0-24.8,20.1-44.9,44.9-44.9c12.4,0,23.6,5,31.7,13.1L95,4.2V37.9z"
		/>
</g>
<g id="Layer_11" display="none">
	<path display="inline" fill="#F1F0F0" d="M50.3,9.3C74.5,9.3,94,25.2,94,44.8c0,19.6-19.5,35.5-43.7,35.5c-2.3,0-4.6-0.1-6.8-0.4
		C34.2,89.2,23,90.9,12.1,91.1v-2.3C18,85.9,23,80.7,23,74.8c0-0.8-0.1-1.6-0.2-2.4C13,65.8,6.7,55.9,6.7,44.8
		C6.7,25.2,26.2,9.3,50.3,9.3z"/>
</g>
</svg>
