<?xml version="1.0" encoding="utf-8"?>
<!-- Generator: Adobe Illustrator 18.1.1, SVG Export Plug-In . SVG Version: 6.00 Build 0)  -->
<svg version="1.1" xmlns="http://www.w3.org/2000/svg" xmlns:xlink="http://www.w3.org/1999/xlink" x="0px" y="0px"
	 viewBox="0 0 300 300" enable-background="new 0 0 300 300" xml:space="preserve">
<g id="Layer_1" display="none">
	<g display="inline">
		<g>
			<path fill="#3079B3" d="M102.6,134.9c-26.7,0-48.5-24.7-48.5-55s21.8-55,48.5-55c26.7,0,48.5,24.7,48.5,55
				S129.4,134.9,102.6,134.9L102.6,134.9z M102.6,37.6c-19.8,0-35.9,19-35.9,42.3s16.1,42.3,35.9,42.3c19.8,0,35.9-19,35.9-42.3
				S122.4,37.6,102.6,37.6L102.6,37.6z"/>
		</g>
		<g>
			<path fill="#3079B3" d="M182.8,273.4H20.3c-3.3,0-6.1-2.6-6.3-5.9L10.4,215c-1.2-17.4,12.4-37.4,29.6-43.8
				c39.7-14.2,83.5-14.1,123,0c17.3,6.4,30.9,26.4,29.6,43.8l-3.6,52.4C188.9,270.8,186.1,273.4,182.8,273.4L182.8,273.4z
				 M26.2,260.7h150.7l3.2-46.5c0.8-10.7-8.2-26.2-21.3-31.1C122,170,81.2,170,44.3,183.1c-13,4.8-22,20.4-21.3,31.1L26.2,260.7
				L26.2,260.7z"/>
		</g>
		<g>
			<path fill="#3079B3" d="M182.8,273.4H20.3c-3.3,0-6.1-2.6-6.3-5.9L10.4,215c-1.2-17.4,12.4-37.4,29.6-43.8
				c39.7-14.2,83.5-14.1,123,0c17.3,6.4,30.9,26.4,29.6,43.8l-3.6,52.4C188.9,270.8,186.1,273.4,182.8,273.4L182.8,273.4z
				 M26.2,260.7h150.7l3.2-46.5c0.8-10.7-8.2-26.2-21.3-31.1C122,170,81.2,170,44.3,183.1c-13,4.8-22,20.4-21.3,31.1L26.2,260.7
				L26.2,260.7z"/>
		</g>
		<g>
			<path fill="#3079B3" d="M213.3,152.2c-23.2,0-42-21.3-42-47.5c0-26.2,18.9-47.5,42-47.5c23.2,0,42,21.3,42,47.5
				C255.3,130.9,236.5,152.2,213.3,152.2L213.3,152.2z M213.3,69.8c-16.2,0-29.4,15.7-29.4,34.9c0,19.2,13.2,34.9,29.4,34.9
				c16.2,0,29.4-15.6,29.4-34.9C242.7,85.5,229.5,69.8,213.3,69.8L213.3,69.8z"/>
		</g>
		<g>
			<path fill="#3079B3" d="M281.2,263.1h-95.7c-3.5,0-6.3-2.8-6.3-6.3c0-3.5,2.8-6.3,6.3-6.3h89.8l2.6-38.5
				c0.6-8.5-6.9-21.4-17.4-25.3c-29.4-10.6-62.1-11.1-92-1.5c-3.3,1.1-6.9-0.8-7.9-4.1c-1.1-3.3,0.8-6.9,4.1-7.9
				c32.5-10.5,68-9.9,100.2,1.6c15,5.5,26.8,22.9,25.7,38l-3,44.4C287.3,260.5,284.5,263.1,281.2,263.1L281.2,263.1z"/>
		</g>
	</g>
</g>
<g id="Layer_2">
	<g>
		<g>
			<path fill="#3079B3" d="M283.4,272.3H16.3c-3.6,0-6.5-2.9-6.5-6.5V53.3c0-3.6,2.9-6.5,6.5-6.5h267.1c3.6,0,6.5,2.9,6.5,6.5v212.5
				C289.9,269.4,287,272.3,283.4,272.3L283.4,272.3z M22.8,259.3h254.1V59.8H22.8V259.3L22.8,259.3z"/>
		</g>
		<g>
			<path fill="#3079B3" d="M233.5,81.5c-3.6,0-6.5-2.9-6.5-6.5V31.6c0-3.6,2.9-6.5,6.5-6.5c3.6,0,6.5,2.9,6.5,6.5V75
				C240,78.6,237.1,81.5,233.5,81.5L233.5,81.5z"/>
		</g>
		<g>
			<path fill="#3079B3" d="M67.6,81.5c-3.6,0-6.5-2.9-6.5-6.5V31.6c0-3.6,2.9-6.5,6.5-6.5c3.6,0,6.5,2.9,6.5,6.5V75
				C74.1,78.6,71.2,81.5,67.6,81.5L67.6,81.5z"/>
		</g>
		<g>
			<path fill="#3079B3" d="M282.7,130.1H18.1c-3.6,0-6.5-2.9-6.5-6.5c0-3.6,2.9-6.5,6.5-6.5h264.6c3.6,0,6.5,2.9,6.5,6.5
				C289.2,127.2,286.3,130.1,282.7,130.1L282.7,130.1z"/>
		</g>
		<polygon fill="#3079B3" points="77.1,156.5 51.9,156.5 51.9,181.8 77.1,181.8 77.1,156.5 		"/>
		<polygon fill="#3079B3" points="120.8,156.5 95.6,156.5 95.6,181.8 120.8,181.8 120.8,156.5 		"/>
		<polygon fill="#3079B3" points="164.5,156.5 139.3,156.5 139.3,181.8 164.5,181.8 164.5,156.5 		"/>
		<polygon fill="#3079B3" points="208.2,156.5 183,156.5 183,181.8 208.2,181.8 208.2,156.5 		"/>
		<polygon fill="#3079B3" points="251.9,156.5 226.7,156.5 226.7,181.8 251.9,181.8 251.9,156.5 		"/>
		<polygon fill="#3079B3" points="77.1,197.1 51.9,197.1 51.9,222.3 77.1,222.3 77.1,197.1 		"/>
		<polygon fill="#3079B3" points="120.8,197.1 95.6,197.1 95.6,222.3 120.8,222.3 120.8,197.1 		"/>
		<polygon fill="#3079B3" points="164.5,197.1 139.3,197.1 139.3,222.3 164.5,222.3 164.5,197.1 		"/>
		<polygon fill="#3079B3" points="208.2,197.1 183,197.1 183,222.3 208.2,222.3 208.2,197.1 		"/>
		<polygon fill="#3079B3" points="251.9,197.1 226.7,197.1 226.7,222.3 251.9,222.3 251.9,197.1 		"/>
	</g>
</g>
<g id="Layer_3" display="none">
	<g display="inline">
		<g>
			<path fill="#3079B3" d="M150.5,205.3c-54,0-97.9-43.9-97.9-97.9c0-54,43.9-97.9,97.9-97.9c54,0,97.9,43.9,97.9,97.9
				C248.4,161.4,204.4,205.3,150.5,205.3L150.5,205.3z M150.5,21.5c-47.4,0-85.9,38.5-85.9,85.9c0,47.3,38.5,85.9,85.9,85.9
				c47.3,0,85.9-38.5,85.9-85.9C236.3,60.1,197.8,21.5,150.5,21.5L150.5,21.5z"/>
		</g>
		<g>
			<path fill="#3079B3" d="M150.5,167.3c-33,0-59.9-26.9-59.9-59.9c0-33,26.9-59.9,59.9-59.9c33,0,59.9,26.9,59.9,59.9
				C210.3,140.4,183.5,167.3,150.5,167.3L150.5,167.3z M150.5,59.6c-26.4,0-47.9,21.5-47.9,47.9c0,26.4,21.5,47.9,47.9,47.9
				c26.4,0,47.9-21.5,47.9-47.9C198.3,81,176.9,59.6,150.5,59.6L150.5,59.6z"/>
		</g>
		<g>
			<g>
				<path fill="#3079B3" d="M99.3,289.2c-2,0-3.9-1-5-2.7l-20.3-31l-37.1-0.8c-2.1,0-4-1.2-5.1-3c-1-1.8-1.1-4.1,0-5.9l44.2-79.6
					c1.6-2.9,5.3-3.9,8.2-2.3c2.9,1.6,3.9,5.3,2.3,8.2l-39.4,70.9l30.3,0.7c2,0,3.8,1.1,4.9,2.7l16.6,25.4l39.3-70.9
					c1.6-2.9,5.3-3.9,8.2-2.3c2.9,1.6,3.9,5.3,2.3,8.2l-44.2,79.5c-1,1.8-2.9,3-5,3.1C99.5,289.2,99.4,289.2,99.3,289.2L99.3,289.2z
					"/>
			</g>
			<g>
				<path fill="#3079B3" d="M201.6,289.2c-0.1,0-0.1,0-0.2,0c-2.1-0.1-4-1.3-5-3.1l-44.2-79.5c-1.6-2.9-0.6-6.6,2.3-8.2
					c2.9-1.6,6.5-0.6,8.2,2.3l39.3,70.9l16.6-25.4c1.1-1.7,2.9-2.7,4.9-2.7l30.3-0.7l-39.4-70.9c-1.6-2.9-0.6-6.6,2.3-8.2
					c2.9-1.6,6.6-0.6,8.2,2.3l44.2,79.6c1,1.8,1,4.1,0,5.9c-1,1.8-3,3-5.1,3l-37.1,0.8l-20.3,31
					C205.5,288.1,203.6,289.2,201.6,289.2L201.6,289.2z"/>
			</g>
		</g>
	</g>
</g>
</svg>
